<svg width="100.00000000000001" height="100.00000000000001" xmlns="http://www.w3.org/2000/svg">

 <g>
  <title>background</title>
  <rect fill="none" id="canvas_background" height="402" width="582" y="-1" x="-1"/>
 </g>
 <g>
  <title>Layer 1</title>
  <rect id="svg_1" height="69.711" width="60.948" fill="#095D9F" y="18.525" x="21.696"/>
  <g id="svg_2">
   <path id="svg_3" d="m27.593,76.023c0,2.75 2.25,5 5,5l39.013,0c2.75,0 5,-2.25 5,-5l0,-48.201c0,-2.75 -2.25,-5 -5,-5l-39.013,0c-2.75,0 -5,2.25 -5,5l0,48.201z" fill="#FFFFFF"/>
  </g>
  <path id="svg_4" d="m76.605,21.29l-49.012,0c-0.846,0 -1.531,0.686 -1.531,1.532l0,58.202c0,0.847 0.686,1.532 1.531,1.532l49.013,0c0.846,0 1.533,-0.686 1.533,-1.532l0,-58.202c0,-0.846 -0.688,-1.532 -1.534,-1.532m0,59.733l-49.012,0l0,-58.201l49.013,0l0,58.201l-0.001,0z" fill="#095D9F"/>
  <path id="svg_5" d="m78.139,16.695l-10.723,0c0,-1.692 -1.371,-3.063 -3.063,-3.063l-6.327,0c-0.682,-2.641 -3.074,-4.595 -5.926,-4.595c-2.854,0 -5.246,1.955 -5.926,4.595l-6.328,0c-1.691,0 -3.063,1.372 -3.063,3.063l-10.721,0c-3.383,0 -6.127,2.743 -6.127,6.126l0,61.265c0,3.384 2.744,6.127 6.127,6.127l52.077,0c3.383,0 6.125,-2.743 6.125,-6.127l0,-61.264c0,-3.384 -2.743,-6.127 -6.125,-6.127m-26.038,-4.595c1.691,0 3.063,1.372 3.063,3.063c0,1.691 -1.371,3.063 -3.063,3.063s-3.064,-1.372 -3.064,-3.063c-0.001,-1.691 1.372,-3.063 3.064,-3.063m29.1,71.987c0,1.692 -1.371,3.063 -3.063,3.063l-52.076,0c-1.691,0 -3.063,-1.371 -3.063,-3.063l0,-61.265c0,-1.692 1.371,-3.063 3.063,-3.063l10.723,0l0,3.829c0,1.692 1.371,3.063 3.063,3.063l24.507,0c1.691,0 3.063,-1.372 3.063,-3.063l0,-3.829l10.723,0c1.691,0 3.063,1.372 3.063,3.063l0,61.265l-0.003,0z" fill="#095D9F"/>
  <rect id="svg_6" height="2.082" width="14.271" fill="#095D9F" y="35.086" x="38.468"/>
  <rect id="svg_7" height="2.082" width="22.771" fill="#095D9F" y="41.836" x="38.468"/>
  <rect id="svg_8" height="2.082" width="28.271" fill="#095D9F" y="48.564" x="38.447"/>
  <rect id="svg_9" height="2.082" width="23.896" fill="#095D9F" y="56.5" x="38.468"/>
  <rect id="svg_10" height="2.082" width="31.021" fill="#095D9F" y="64.584" x="38.468"/>
  <rect id="svg_11" height="2.082" width="34.771" fill="#095D9F" y="71.961" x="38.468"/>
 </g>
</svg>